<?xml version="1.0" standalone="no"?>
<!DOCTYPE svg PUBLIC "-//W3C//DTD SVG 20010904//EN"
 "http://www.w3.org/TR/2001/REC-SVG-20010904/DTD/svg10.dtd">
<svg version="1.0" xmlns="http://www.w3.org/2000/svg"
 width="300.000000pt" height="300.000000pt" viewBox="0 0 300.000000 300.000000"
 preserveAspectRatio="xMidYMid meet">
<metadata>
Created by potrace 1.10, written by Peter Selinger 2001-2011
</metadata>
<g transform="translate(0.000000,300.000000) scale(0.100000,-0.100000)"
fill="#000000" stroke="none">
<path d="M1083 2207 l-403 -232 0 -476 0 -476 410 -236 409 -235 203 117 c112
64 296 171 411 237 l207 119 -2 475 -3 474 -404 233 c-223 128 -409 233 -415
232 -6 0 -192 -105 -413 -232z m638 73 c123 -71 301 -174 396 -227 l172 -98 1
-455 0 -456 -396 -227 -395 -228 -395 227 -394 226 0 457 0 456 393 227 c215
124 392 227 393 227 0 1 101 -57 225 -129z"/>
<path d="M1128 2137 l-368 -212 0 -426 0 -427 367 -211 c201 -117 373 -209
380 -207 8 3 176 99 374 213 l359 206 0 426 -1 426 -365 210 c-202 116 -369
211 -373 212 -3 1 -171 -93 -373 -210z m755 -41 l327 -189 -2 -410 -3 -410
-353 -204 -353 -203 -354 202 -354 203 2 413 2 414 350 202 350 203 30 -16
c17 -10 177 -102 358 -205z"/>
<path d="M1162 2063 l-322 -186 2 -380 3 -380 327 -188 326 -189 331 191 331
191 0 377 0 377 -321 184 c-177 102 -329 186 -338 187 -9 2 -161 -81 -339
-184z m661 -23 l306 -175 1 -365 0 -365 -316 -182 -316 -182 -314 181 -314
181 0 366 0 366 308 177 c169 98 314 176 323 175 9 -1 154 -81 322 -177z"/>
<path d="M1210 1996 l-285 -165 0 -333 0 -333 280 -162 c154 -89 287 -161 296
-160 8 1 140 74 292 162 l277 159 0 336 -1 335 -280 160 c-154 88 -283 161
-287 162 -4 2 -135 -71 -292 -161z m573 -25 l267 -154 -2 -320 -3 -320 -273
-157 -273 -158 -274 157 -274 156 2 323 2 323 265 154 c146 85 272 153 280
152 8 -1 135 -71 283 -156z"/>
<path d="M1250 1925 l-245 -142 -2 -284 -3 -284 249 -143 249 -143 246 142
246 141 0 286 0 287 -192 110 c-105 61 -216 124 -247 141 l-56 31 -245 -142z
m485 -18 l230 -133 3 -274 2 -275 -236 -136 -236 -136 -232 134 -231 133 -5
275 -5 276 230 133 c127 74 235 134 240 135 6 0 114 -59 240 -132z"/>
<path d="M1287 1853 l-197 -115 2 -241 3 -241 201 -116 202 -117 203 117 204
118 3 239 2 239 -203 117 c-112 64 -208 117 -213 116 -5 0 -98 -53 -207 -116z
m409 -15 l194 -112 -2 -229 -3 -229 -189 -109 c-103 -60 -192 -109 -198 -109
-5 0 -97 51 -204 112 l-194 113 2 225 3 225 195 112 c107 62 196 113 198 113
2 0 90 -50 198 -112z"/>
<path d="M1335 1785 l-160 -93 -2 -194 -3 -193 165 -94 164 -93 163 94 163 94
3 191 2 191 -162 94 c-89 51 -165 94 -168 95 -3 1 -77 -40 -165 -92z m316 -13
l154 -88 3 -184 2 -185 -156 -89 -155 -89 -42 23 c-23 13 -94 54 -157 91
l-115 67 -3 179 -2 180 157 91 c87 50 159 91 159 92 1 0 71 -40 155 -88z"/>
<path d="M1370 1712 l-115 -67 -3 -145 -3 -145 125 -72 124 -71 126 72 126 71
-2 143 -3 144 -118 69 c-65 38 -124 69 -130 69 -7 -1 -64 -31 -127 -68z m248
-12 l112 -64 0 -137 0 -137 -116 -67 -116 -66 -119 68 -119 68 2 134 3 135
115 67 c63 37 117 67 120 66 3 -1 56 -31 118 -67z"/>
<path d="M1413 1642 l-83 -47 0 -96 0 -96 80 -47 c44 -25 83 -46 86 -46 4 0
45 21 91 47 l84 47 -3 95 -3 95 -80 48 c-44 26 -82 47 -85 47 -3 0 -42 -21
-87 -47z m165 -11 l72 -42 0 -92 0 -92 -77 -43 -76 -42 -79 46 -78 46 0 87 0
86 78 46 c42 25 79 45 82 44 3 -1 38 -21 78 -44z"/>
<path d="M1441 1544 c-28 -36 -26 -60 8 -95 35 -34 59 -36 95 -8 33 26 36 79
6 109 -30 30 -83 27 -109 -6z m101 -1 c18 -16 24 -58 10 -80 -12 -19 -55 -31
-80 -22 -43 16 -48 85 -8 111 19 13 59 9 78 -9z"/>
</g>
</svg>
